<?xml version="1.0" standalone="no"?>
<!DOCTYPE svg PUBLIC "-//W3C//DTD SVG 20010904//EN"
 "http://www.w3.org/TR/2001/REC-SVG-20010904/DTD/svg10.dtd">
<svg version="1.0" xmlns="http://www.w3.org/2000/svg"
 width="1138.000000pt" height="1138.000000pt" viewBox="0 0 1138.000000 1138.000000"
 preserveAspectRatio="xMidYMid meet">
<metadata>
Created by potrace 1.14, written by Peter Selinger 2001-2017
</metadata>
<g transform="translate(0.000000,1138.000000) scale(0.100000,-0.100000)"
fill="#000000" stroke="none">
<path d="M4009 11376 c-2 -2 -42 -7 -89 -10 -47 -3 -96 -8 -110 -11 -14 -2
-47 -6 -75 -10 -60 -7 -80 -10 -120 -18 -16 -3 -46 -9 -65 -11 -19 -3 -46 -8
-60 -11 -14 -3 -36 -8 -50 -11 -272 -54 -647 -195 -900 -337 -519 -294 -918
-699 -1167 -1187 -79 -155 -181 -415 -199 -507 -1 -6 -7 -27 -13 -45 -6 -18
-13 -44 -16 -58 -42 -200 -42 -196 -51 -275 -3 -27 -8 -53 -10 -56 -7 -12 -18
-209 -18 -334 0 -124 9 -291 18 -345 2 -14 10 -59 16 -100 64 -407 266 -861
479 -1077 95 -96 200 -174 321 -240 72 -38 233 -103 295 -119 17 -4 35 -8 40
-10 22 -6 122 -25 150 -29 105 -15 151 -18 245 -19 426 -1 808 142 1064 398
137 138 247 319 311 511 23 70 32 103 51 190 44 195 52 485 19 690 -50 318
-114 487 -251 665 -199 259 -502 435 -839 487 -62 10 -306 9 -360 -1 -127 -24
-295 -86 -479 -177 -91 -46 -100 -52 -259 -172 -65 -49 -121 -87 -123 -84 -8
7 -7 142 1 217 29 290 181 609 400 839 90 95 245 222 385 315 181 121 311 187
560 286 44 17 209 69 240 75 8 2 33 8 55 13 45 12 64 16 190 37 137 23 233 30
430 30 196 0 276 -7 430 -35 74 -14 92 -18 154 -35 601 -170 1100 -713 1363
-1485 34 -98 110 -380 125 -460 2 -14 15 -74 28 -135 13 -60 26 -130 30 -155
4 -24 8 -47 10 -50 2 -4 6 -26 9 -51 3 -24 8 -55 11 -69 3 -14 7 -38 9 -55 14
-99 37 -265 41 -295 2 -19 7 -53 9 -75 8 -57 14 -128 22 -225 4 -47 8 -101 10
-120 22 -243 22 -994 0 -1161 -3 -19 -8 -77 -11 -129 -4 -52 -8 -108 -10 -125
-2 -16 -6 -55 -10 -85 -3 -30 -8 -73 -11 -95 -2 -22 -7 -58 -10 -80 -2 -22 -7
-51 -9 -65 -3 -14 -7 -38 -9 -55 -11 -78 -18 -122 -22 -145 -2 -14 -15 -80
-29 -145 -15 -66 -28 -131 -31 -144 -41 -204 -206 -693 -311 -921 -74 -161
-190 -389 -250 -493 -37 -65 -74 -131 -82 -145 -15 -29 -253 -394 -271 -415
-5 -6 -56 -73 -111 -147 -101 -134 -205 -263 -283 -351 -23 -25 -72 -81 -111
-124 -90 -102 -372 -385 -495 -496 -369 -334 -682 -571 -1165 -882 -380 -244
-726 -432 -1155 -627 -63 -29 -137 -63 -165 -75 -85 -40 -645 -285 -689 -302
-22 -9 -45 -19 -51 -23 -5 -4 -64 -31 -129 -60 -203 -89 -274 -147 -261 -215
10 -59 84 -95 201 -100 74 -2 76 -2 454 128 443 153 453 156 475 166 42 18
131 51 138 51 10 0 580 226 603 239 11 6 80 36 154 67 74 31 169 72 210 91 41
19 107 48 145 66 90 40 660 326 745 373 36 19 94 52 130 71 67 37 78 43 315
184 613 362 1161 765 1685 1238 96 86 476 463 561 556 37 41 209 244 278 330
295 365 642 951 830 1400 34 83 66 159 71 170 26 62 108 299 154 443 19 60
112 422 120 467 3 17 10 55 16 85 26 128 40 218 55 335 4 28 8 61 10 75 2 14
7 57 10 95 4 39 8 81 10 95 22 152 22 814 0 1035 -2 22 -7 78 -10 125 -4 47
-9 94 -11 105 -2 11 -6 49 -10 85 -3 36 -7 76 -9 90 -2 14 -11 72 -20 130 -8
58 -17 114 -19 125 -2 11 -12 56 -21 100 -75 369 -243 815 -425 1132 -28 47
-50 87 -50 89 0 17 -236 349 -313 441 -102 122 -270 293 -381 388 -238 203
-550 389 -831 498 -201 78 -598 187 -775 213 -19 3 -42 7 -50 9 -19 5 -60 12
-125 20 -27 3 -57 8 -65 10 -8 2 -49 6 -90 10 -41 4 -88 9 -105 12 -35 6 -640
14 -646 9z"/>
<path d="M9494 10305 c-289 -74 -494 -297 -542 -588 -11 -73 -5 -249 13 -315
72 -280 294 -487 573 -536 116 -20 303 -9 387 23 258 99 426 292 480 553 18
86 11 276 -13 359 -73 245 -246 419 -497 499 -107 34 -281 36 -401 5z"/>
<path d="M9595 6999 c-123 -15 -160 -26 -263 -76 -187 -92 -344 -310 -379
-528 -9 -50 -8 -207 0 -260 35 -227 190 -434 401 -534 71 -34 105 -45 216 -66
34 -7 188 -7 225 0 122 22 252 73 323 128 155 118 244 258 289 452 2 11 6 65
8 120 9 213 -59 388 -210 541 -153 154 -277 209 -515 228 -19 1 -62 -1 -95 -5z"/>
</g>
</svg>
